:FULLY-SPECIFIED
:FORCE-ALL-JOINTS-BE-3DOF
:DEGREES
485
root 10.7624 17.1717 31.769 4.96645 4.28649 4.39345
lfemur 6.43545 2.11733 -28.6715
ltibia 9.71396 0 0
lfoot -16.7733 3.59291 0
ltoes -0.530682 0 0
rfemur -38.3507 7.10244 11.5468
rtibia 37.2422 0 0
rfoot -22.2356 -11.7798 0
rtoes -21.8485 0 0
lowerback -6.74777 -4.59102 -5.11977
upperback 0.594676 -5.73207 1.31103
thorax 5.06433 -3.00065 3.53891
lowerneck -23.1552 -2.66104 -9.48855
upperneck 24.3338 -3.32708 10.4003
head 12.2201 -1.00601 5.00667
lclavicle 2.40657e-014 6.15592e-015 0
lhumerus -13.4977 -23.1056 85.9436
lradius 31.8694 0 0
lwrist 5.56669 0 0
lhand -13.9828 -25.3588 0
lfingers 7.12502 0 0
lthumb 12.1457 4.26855 0
rclavicle 2.40657e-014 6.15592e-015 0
rhumerus -47.3678 7.72032 -85.5839
rradius 35.5569 0 0
rwrist -17.9657 0 0
rhand -33.0737 -18.735 0
rfingers 7.12502 0 0
rthumb -6.28414 -48.5822 0
486
root 10.7568 17.161 31.9076 4.99257 4.32097 4.48585
lfemur 7.36454 2.06586 -28.6838
ltibia 8.90446 0 0
lfoot -16.7386 3.60209 0
ltoes -0.664263 0 0
rfemur -38.7057 7.47275 11.2789
rtibia 36.3609 0 0
rfoot -22.4298 -11.9049 0
rtoes -22.2187 0 0
lowerback -6.84256 -4.6408 -5.2024
upperback 0.651438 -5.78586 1.28683
thorax 5.1885 -3.03227 3.54313
lowerneck -23.1987 -2.65681 -9.48106
upperneck 24.2964 -3.33162 10.4482
head 12.2156 -0.999864 5.02237
lclavicle 2.47439e-014 5.64293e-015 0
lhumerus -13.4213 -23.3707 85.9495
lradius 32.1698 0 0
lwrist 5.72635 0 0
lhand -13.9718 -25.4066 0
lfingers 7.12502 0 0
lthumb 12.1563 4.22007 0
rclavicle 2.47439e-014 5.64293e-015 0
rhumerus -47.4396 7.55986 -85.5035
rradius 35.407 0 0
rwrist -17.9267 0 0
rhand -32.7972 -18.901 0
rfingers 7.12502 0 0
rthumb -6.01727 -48.7574 0
487
root 10.7512 17.1502 32.0462 5.01869 4.35546 4.57826
lfemur 8.29363 2.01439 -28.6962
ltibia 8.09497 0 0
lfoot -16.7038 3.61127 0
ltoes -0.797844 0 0
rfemur -39.0607 7.84307 11.011
rtibia 35.4796 0 0
rfoot -22.624 -12.03 0
rtoes -22.5889 0 0
lowerback -6.93736 -4.69057 -5.28503
upperback 0.708199 -5.83965 1.26263
thorax 5.31267 -3.06389 3.54735
lowerneck -23.2423 -2.65258 -9.47356
upperneck 24.2589 -3.33616 10.4962
head 12.211 -0.993714 5.03806
lclavicle 2.5422e-014 5.12994e-015 0
lhumerus -13.3449 -23.6359 85.9553
lradius 32.4702 0 0
lwrist 5.88601 0 0
lhand -13.9608 -25.4545 0
lfingers 7.12502 0 0
lthumb 12.167 4.17159 0
rclavicle 2.5422e-014 5.12994e-015 0
rhumerus -47.5114 7.3994 -85.423
rradius 35.2571 0 0
rwrist -17.8878 0 0
rhand -32.5207 -19.0669 0
rfingers 7.12502 0 0
rthumb -5.7504 -48.9325 0
488
root 10.7456 17.1395 32.1848 5.04482 4.38995 4.67067
lfemur 9.22272 1.96293 -28.7085
ltibia 7.28547 0 0
lfoot -16.6691 3.62046 0
ltoes -0.931424 0 0
rfemur -39.4157 8.21338 10.7431
rtibia 34.5983 0 0
rfoot -22.8183 -12.1551 0
rtoes -22.9591 0 0
lowerback -7.03215 -4.74035 -5.36767
upperback 0.76496 -5.89343 1.23842
thorax 5.43684 -3.09552 3.55157
lowerneck -23.2858 -2.64835 -9.46606
upperneck 24.2214 -3.3407 10.5442
head 12.2064 -0.987564 5.05376
lclavicle 2.61001e-014 4.61694e-015 0
lhumerus -13.2685 -23.901 85.9612
lradius 32.7706 0 0
lwrist 6.04568 0 0
lhand -13.9497 -25.5023 0
lfingers 7.12502 0 0
lthumb 12.1776 4.12311 0
rclavicle 2.61001e-014 4.61694e-015 0
rhumerus -47.5832 7.23894 -85.3426
rradius 35.1071 0 0
rwrist -17.8489 0 0
rhand -32.2443 -19.2329 0
rfingers 7.12502 0 0
rthumb -5.48354 -49.1077 0
